# xmcd
#
# Track frame offsets: 
#        150
#        19285
#        39447
#        58532
#        78017
#        95407
#        124570
#        148617
#        169247
#        190365
#        210942
#        231937
#        257057
#        278495
#        299302
#        325695
#        355890
#
# Disc length: 4755 seconds
#
# Revision: 42
# Processed by: cddbd v1.5.2PL0 Copyright (c) Steve Scherf et al.
# Submitted via: ExactAudioCopy v0.99pb5
#
DISCID=ec129111
DTITLE=Various Artist - Shaman
DYEAR=2002
DGENRE=Rock
TTITLE0=Santana - Adouma
TTITLE1=Santana feat Musiq - Nothing At All
TTITLE2=Santana feat Michelle Branch - The Game Of Love
TTITLE3=Santana feat Seal - You Are My Kind
TTITLE4=Santana feat Macy Gray - Amoré (Sexo)
TTITLE5=Santana - Foo Foo
TTITLE6=Santana - Victory Is Won
TTITLE7=Santana feat P.O.D. - America
TTITLE8=Santana feat Citizen Cope - Sideways
TTITLE9=Santana feat Chad Kroeger - Why Don't You and I
TTITLE10=Santana feat Dido - Feels Like Fire
TTITLE11=Santana - Let Me Love You Tonight
TTITLE12=Santana - Aye Aye Aye
TTITLE13=Santana feat Alejandro Lerner - Hoy Es Adios
TTITLE14=Santana feat Ozomatli - One Of These Days
TTITLE15=Santana feat Placido Domingo - Novus
TTITLE16=DATA
EXTD=
EXTT0=
EXTT1=
EXTT2=
EXTT3=
EXTT4=
EXTT5=
EXTT6=
EXTT7=
EXTT8=
EXTT9=
EXTT10=
EXTT11=
EXTT12=
EXTT13=
EXTT14=
EXTT15=
EXTT16=
PLAYORDER=
